<mxfile host="Electron" modified="2024-01-19T10:23:30.298Z" agent="Mozilla/5.0 (Macintosh; Intel Mac OS X 10_15_7) AppleWebKit/537.36 (KHTML, like Gecko) draw.io/22.1.18 Chrome/120.0.6099.199 Electron/28.1.2 Safari/537.36" etag="LIelGHko8uTNVOXK4Vfk" version="22.1.18" type="device">
  <diagram name="第 1 页" id="bkJjv-Hc_H5YmqZhhWNJ">
    <mxGraphModel dx="1026" dy="653" grid="1" gridSize="10" guides="1" tooltips="1" connect="1" arrows="1" fold="1" page="1" pageScale="1" pageWidth="1600" pageHeight="1200" math="0" shadow="0">
      <root>
        <mxCell id="0" />
        <mxCell id="1" parent="0" />
        <mxCell id="4I_5iKiYspnkT2Ag9zU0-1" value="0, 5" style="rounded=0;whiteSpace=wrap;html=1;fontSize=24;fillColor=#dae8fc;strokeColor=#6c8ebf;" parent="1" vertex="1">
          <mxGeometry x="320" y="160" width="120" height="40" as="geometry" />
        </mxCell>
        <mxCell id="4I_5iKiYspnkT2Ag9zU0-2" value="1" style="rounded=0;whiteSpace=wrap;html=1;fontSize=24;fillColor=#d5e8d4;strokeColor=#82b366;" parent="1" vertex="1">
          <mxGeometry x="440" y="160" width="120" height="40" as="geometry" />
        </mxCell>
        <mxCell id="4I_5iKiYspnkT2Ag9zU0-3" value="" style="rounded=0;whiteSpace=wrap;html=1;fontSize=24;" parent="1" vertex="1">
          <mxGeometry x="560" y="160" width="120" height="40" as="geometry" />
        </mxCell>
        <mxCell id="4I_5iKiYspnkT2Ag9zU0-4" value="3" style="rounded=0;whiteSpace=wrap;html=1;fontSize=24;fillColor=#fff2cc;strokeColor=#d6b656;" parent="1" vertex="1">
          <mxGeometry x="680" y="160" width="120" height="40" as="geometry" />
        </mxCell>
        <mxCell id="4I_5iKiYspnkT2Ag9zU0-5" value="" style="rounded=0;whiteSpace=wrap;html=1;fontSize=24;" parent="1" vertex="1">
          <mxGeometry x="800" y="160" width="120" height="40" as="geometry" />
        </mxCell>
        <mxCell id="4I_5iKiYspnkT2Ag9zU0-6" value="0" style="rounded=0;whiteSpace=wrap;html=1;fontSize=24;fillColor=#dae8fc;strokeColor=#6c8ebf;" parent="1" vertex="1">
          <mxGeometry x="320" y="240" width="120" height="40" as="geometry" />
        </mxCell>
        <mxCell id="4I_5iKiYspnkT2Ag9zU0-7" value="1" style="rounded=0;whiteSpace=wrap;html=1;fontSize=24;fillColor=#d5e8d4;strokeColor=#82b366;" parent="1" vertex="1">
          <mxGeometry x="440" y="240" width="120" height="40" as="geometry" />
        </mxCell>
        <mxCell id="4I_5iKiYspnkT2Ag9zU0-8" value="5" style="rounded=0;whiteSpace=wrap;html=1;fontSize=24;fillColor=#dae8fc;strokeColor=#6c8ebf;" parent="1" vertex="1">
          <mxGeometry x="560" y="240" width="120" height="40" as="geometry" />
        </mxCell>
        <mxCell id="4I_5iKiYspnkT2Ag9zU0-9" value="3" style="rounded=0;whiteSpace=wrap;html=1;fontSize=24;fillColor=#fff2cc;strokeColor=#d6b656;" parent="1" vertex="1">
          <mxGeometry x="680" y="240" width="120" height="40" as="geometry" />
        </mxCell>
        <mxCell id="4I_5iKiYspnkT2Ag9zU0-10" value="" style="rounded=0;whiteSpace=wrap;html=1;fontSize=24;" parent="1" vertex="1">
          <mxGeometry x="800" y="240" width="120" height="40" as="geometry" />
        </mxCell>
        <mxCell id="4I_5iKiYspnkT2Ag9zU0-11" value="理想情况" style="text;html=1;strokeColor=none;fillColor=none;align=center;verticalAlign=middle;whiteSpace=wrap;rounded=0;fontSize=24;" parent="1" vertex="1">
          <mxGeometry x="180" y="160" width="100" height="40" as="geometry" />
        </mxCell>
        <mxCell id="4I_5iKiYspnkT2Ag9zU0-12" value="实际情况" style="text;html=1;strokeColor=none;fillColor=none;align=center;verticalAlign=middle;whiteSpace=wrap;rounded=0;fontSize=24;" parent="1" vertex="1">
          <mxGeometry x="180" y="240" width="100" height="40" as="geometry" />
        </mxCell>
        <mxCell id="4I_5iKiYspnkT2Ag9zU0-13" value="依次添加：0, 1, 5, 3" style="text;html=1;strokeColor=none;fillColor=none;align=center;verticalAlign=middle;whiteSpace=wrap;rounded=0;fontSize=24;" parent="1" vertex="1">
          <mxGeometry x="180" y="100" width="220" height="40" as="geometry" />
        </mxCell>
        <mxCell id="4I_5iKiYspnkT2Ag9zU0-14" value="" style="curved=1;endArrow=classic;html=1;rounded=0;strokeWidth=3;fillColor=#dae8fc;strokeColor=#6c8ebf;" parent="1" source="4I_5iKiYspnkT2Ag9zU0-8" target="4I_5iKiYspnkT2Ag9zU0-6" edge="1">
          <mxGeometry width="50" height="50" relative="1" as="geometry">
            <mxPoint x="520" y="380" as="sourcePoint" />
            <mxPoint x="470" y="430" as="targetPoint" />
            <Array as="points">
              <mxPoint x="520" y="340" />
            </Array>
          </mxGeometry>
        </mxCell>
        <mxCell id="4I_5iKiYspnkT2Ag9zU0-16" value="删除 1 后" style="text;html=1;strokeColor=none;fillColor=none;align=center;verticalAlign=middle;whiteSpace=wrap;rounded=0;fontSize=24;" parent="1" vertex="1">
          <mxGeometry x="170" y="335" width="110" height="40" as="geometry" />
        </mxCell>
        <mxCell id="4I_5iKiYspnkT2Ag9zU0-17" value="0" style="rounded=0;whiteSpace=wrap;html=1;fontSize=24;fillColor=#dae8fc;strokeColor=#6c8ebf;" parent="1" vertex="1">
          <mxGeometry x="320" y="335" width="120" height="40" as="geometry" />
        </mxCell>
        <mxCell id="4I_5iKiYspnkT2Ag9zU0-18" value="" style="rounded=0;whiteSpace=wrap;html=1;fontSize=24;" parent="1" vertex="1">
          <mxGeometry x="440" y="335" width="120" height="40" as="geometry" />
        </mxCell>
        <mxCell id="4I_5iKiYspnkT2Ag9zU0-19" value="5" style="rounded=0;whiteSpace=wrap;html=1;fontSize=24;fillColor=#dae8fc;strokeColor=#6c8ebf;" parent="1" vertex="1">
          <mxGeometry x="560" y="335" width="120" height="40" as="geometry" />
        </mxCell>
        <mxCell id="4I_5iKiYspnkT2Ag9zU0-20" value="3" style="rounded=0;whiteSpace=wrap;html=1;fontSize=24;fillColor=#fff2cc;strokeColor=#d6b656;" parent="1" vertex="1">
          <mxGeometry x="680" y="335" width="120" height="40" as="geometry" />
        </mxCell>
        <mxCell id="4I_5iKiYspnkT2Ag9zU0-21" value="" style="rounded=0;whiteSpace=wrap;html=1;fontSize=24;" parent="1" vertex="1">
          <mxGeometry x="800" y="335" width="120" height="40" as="geometry" />
        </mxCell>
        <mxCell id="4I_5iKiYspnkT2Ag9zU0-22" value="" style="curved=1;endArrow=classic;html=1;rounded=0;strokeWidth=3;fillColor=#dae8fc;strokeColor=#6c8ebf;" parent="1" source="4I_5iKiYspnkT2Ag9zU0-19" target="4I_5iKiYspnkT2Ag9zU0-17" edge="1">
          <mxGeometry width="50" height="50" relative="1" as="geometry">
            <mxPoint x="520" y="395" as="sourcePoint" />
            <mxPoint x="470" y="445" as="targetPoint" />
            <Array as="points">
              <mxPoint x="510" y="435" />
            </Array>
          </mxGeometry>
        </mxCell>
        <mxCell id="4I_5iKiYspnkT2Ag9zU0-24" value="" style="verticalLabelPosition=bottom;verticalAlign=top;html=1;shape=mxgraph.basic.x;fillColor=#dae8fc;strokeColor=#6c8ebf;" parent="1" vertex="1">
          <mxGeometry x="475" y="385" width="50" height="40" as="geometry" />
        </mxCell>
        <mxCell id="4I_5iKiYspnkT2Ag9zU0-25" value="方案1：“墓碑”" style="text;html=1;strokeColor=none;fillColor=none;align=center;verticalAlign=middle;whiteSpace=wrap;rounded=0;fontSize=24;" parent="1" vertex="1">
          <mxGeometry x="120" y="440" width="160" height="40" as="geometry" />
        </mxCell>
        <mxCell id="4I_5iKiYspnkT2Ag9zU0-26" value="0" style="rounded=0;whiteSpace=wrap;html=1;fontSize=24;fillColor=#dae8fc;strokeColor=#6c8ebf;" parent="1" vertex="1">
          <mxGeometry x="320" y="440" width="120" height="40" as="geometry" />
        </mxCell>
        <mxCell id="4I_5iKiYspnkT2Ag9zU0-27" value="已删除" style="rounded=0;whiteSpace=wrap;html=1;fontSize=24;fillColor=#f8cecc;strokeColor=#b85450;" parent="1" vertex="1">
          <mxGeometry x="440" y="440" width="120" height="40" as="geometry" />
        </mxCell>
        <mxCell id="4I_5iKiYspnkT2Ag9zU0-28" value="5" style="rounded=0;whiteSpace=wrap;html=1;fontSize=24;fillColor=#dae8fc;strokeColor=#6c8ebf;" parent="1" vertex="1">
          <mxGeometry x="560" y="440" width="120" height="40" as="geometry" />
        </mxCell>
        <mxCell id="4I_5iKiYspnkT2Ag9zU0-29" value="3" style="rounded=0;whiteSpace=wrap;html=1;fontSize=24;fillColor=#fff2cc;strokeColor=#d6b656;" parent="1" vertex="1">
          <mxGeometry x="680" y="440" width="120" height="40" as="geometry" />
        </mxCell>
        <mxCell id="4I_5iKiYspnkT2Ag9zU0-30" value="" style="rounded=0;whiteSpace=wrap;html=1;fontSize=24;" parent="1" vertex="1">
          <mxGeometry x="800" y="440" width="120" height="40" as="geometry" />
        </mxCell>
        <mxCell id="4I_5iKiYspnkT2Ag9zU0-31" value="" style="curved=1;endArrow=classic;html=1;rounded=0;strokeWidth=3;fillColor=#dae8fc;strokeColor=#6c8ebf;" parent="1" source="4I_5iKiYspnkT2Ag9zU0-28" target="4I_5iKiYspnkT2Ag9zU0-26" edge="1">
          <mxGeometry width="50" height="50" relative="1" as="geometry">
            <mxPoint x="520" y="500" as="sourcePoint" />
            <mxPoint x="470" y="550" as="targetPoint" />
            <Array as="points">
              <mxPoint x="510" y="540" />
            </Array>
          </mxGeometry>
        </mxCell>
        <mxCell id="4I_5iKiYspnkT2Ag9zU0-33" value="方案2：重新移动" style="text;html=1;strokeColor=none;fillColor=none;align=center;verticalAlign=middle;whiteSpace=wrap;rounded=0;fontSize=24;" parent="1" vertex="1">
          <mxGeometry x="90" y="520" width="190" height="40" as="geometry" />
        </mxCell>
        <mxCell id="4I_5iKiYspnkT2Ag9zU0-34" value="0" style="rounded=0;whiteSpace=wrap;html=1;fontSize=24;fillColor=#dae8fc;strokeColor=#6c8ebf;" parent="1" vertex="1">
          <mxGeometry x="320" y="520" width="120" height="40" as="geometry" />
        </mxCell>
        <mxCell id="4I_5iKiYspnkT2Ag9zU0-35" value="5" style="rounded=0;whiteSpace=wrap;html=1;fontSize=24;fillColor=#dae8fc;strokeColor=#6c8ebf;" parent="1" vertex="1">
          <mxGeometry x="440" y="520" width="120" height="40" as="geometry" />
        </mxCell>
        <mxCell id="4I_5iKiYspnkT2Ag9zU0-36" value="" style="rounded=0;whiteSpace=wrap;html=1;fontSize=24;" parent="1" vertex="1">
          <mxGeometry x="560" y="520" width="120" height="40" as="geometry" />
        </mxCell>
        <mxCell id="4I_5iKiYspnkT2Ag9zU0-37" value="3" style="rounded=0;whiteSpace=wrap;html=1;fontSize=24;fillColor=#fff2cc;strokeColor=#d6b656;" parent="1" vertex="1">
          <mxGeometry x="680" y="520" width="120" height="40" as="geometry" />
        </mxCell>
        <mxCell id="4I_5iKiYspnkT2Ag9zU0-38" value="" style="rounded=0;whiteSpace=wrap;html=1;fontSize=24;" parent="1" vertex="1">
          <mxGeometry x="800" y="520" width="120" height="40" as="geometry" />
        </mxCell>
        <mxCell id="4I_5iKiYspnkT2Ag9zU0-39" value="" style="curved=1;endArrow=classic;html=1;rounded=0;strokeWidth=3;fillColor=#dae8fc;strokeColor=#6c8ebf;" parent="1" source="4I_5iKiYspnkT2Ag9zU0-35" target="4I_5iKiYspnkT2Ag9zU0-34" edge="1">
          <mxGeometry width="50" height="50" relative="1" as="geometry">
            <mxPoint x="520" y="580" as="sourcePoint" />
            <mxPoint x="470" y="630" as="targetPoint" />
            <Array as="points">
              <mxPoint x="450" y="620" />
            </Array>
          </mxGeometry>
        </mxCell>
      </root>
    </mxGraphModel>
  </diagram>
</mxfile>
